<!DOCTYPE svg PUBLIC "-//W3C//DTD SVG 20010904//EN" "http://www.w3.org/TR/2001/REC-SVG-20010904/DTD/svg10.dtd">
<svg version="1.0" xmlns="http://www.w3.org/2000/svg" width="84px" height="84px" viewBox="0 0 4740 5140" preserveAspectRatio="xMidYMid meet">
<g id="layer101" fill="#d92f2e" stroke="none">
 <path d="M1646 5113 c-14 -15 -26 -31 -26 -35 0 -3 -6 -13 -13 -20 -33 -33 -158 -274 -173 -334 -4 -15 -13 -39 -20 -53 -8 -14 -14 -33 -14 -42 0 -8 -4 -19 -9 -25 -9 -8 -23 -66 -57 -229 -8 -38 -20 -95 -27 -125 -8 -38 -11 -192 -11 -485 1 -423 3 -467 38 -675 8 -47 22 -128 31 -180 8 -52 19 -102 24 -110 5 -9 12 -40 16 -70 4 -30 12 -60 17 -67 5 -7 8 -22 6 -35 -3 -22 -7 -23 -77 -23 l-75 0 -8 35 c-5 19 -13 44 -18 55 -5 11 -16 63 -25 115 -9 52 -23 131 -31 175 -8 44 -21 154 -29 245 -8 91 -20 195 -25 233 -13 88 -13 565 0 636 6 31 17 126 25 211 15 157 36 313 47 340 4 8 12 51 18 94 7 44 16 87 20 95 10 19 30 103 30 125 0 25 -28 18 -47 -11 -10 -16 -20 -30 -23 -33 -11 -9 -100 -195 -100 -208 0 -6 -4 -12 -9 -12 -5 0 -12 -14 -16 -31 -4 -17 -13 -42 -21 -57 -7 -15 -16 -46 -20 -69 -3 -24 -10 -43 -14 -43 -5 0 -11 -19 -15 -42 -3 -24 -10 -52 -15 -63 -5 -11 -16 -63 -26 -115 -9 -52 -20 -117 -25 -145 -17 -88 -23 -682 -9 -868 6 -94 15 -177 20 -186 4 -9 15 -70 23 -136 25 -191 38 -269 48 -279 5 -6 9 -29 9 -53 0 -40 -2 -44 -30 -50 -17 -3 -33 -10 -36 -14 -3 -5 -20 -9 -37 -9 -39 0 -53 19 -62 86 -4 27 -10 54 -14 59 -7 12 -38 189 -51 295 -5 41 -14 91 -19 110 -31 111 -38 890 -11 1120 19 165 58 346 124 580 17 60 21 110 8 110 -23 0 -152 -153 -152 -180 0 -6 -4 -10 -9 -10 -5 0 -15 -16 -22 -35 -7 -19 -16 -35 -20 -35 -4 0 -13 -17 -20 -37 -6 -21 -15 -42 -19 -48 -4 -5 -20 -48 -35 -95 -15 -47 -30 -92 -35 -100 -4 -9 -11 -31 -14 -50 -4 -19 -11 -44 -16 -55 -11 -27 -30 -132 -30 -170 0 -17 -6 -37 -12 -44 -18 -17 -18 -821 -1 -901 7 -30 19 -109 27 -175 19 -160 34 -246 46 -267 6 -10 10 -30 10 -45 0 -16 7 -63 15 -107 17 -90 15 -96 -45 -116 -22 -7 -40 -17 -40 -22 0 -4 -9 -8 -19 -8 -11 0 -26 -6 -33 -12 -8 -7 -39 -26 -71 -43 -31 -16 -57 -33 -57 -37 0 -4 -6 -8 -12 -8 -34 0 -238 -203 -238 -237 0 -6 -4 -13 -8 -15 -13 -5 -52 -74 -52 -92 0 -9 7 -16 15 -16 13 0 114 64 170 107 19 15 203 103 214 103 6 0 11 4 11 9 0 5 14 11 31 15 17 3 45 12 62 20 18 8 56 21 86 30 50 16 54 16 66 -1 7 -9 18 -42 25 -73 7 -30 15 -61 17 -67 3 -7 -2 -13 -11 -13 -9 0 -16 -4 -16 -9 0 -5 -15 -11 -32 -15 -67 -13 -292 -134 -358 -192 -8 -7 -35 -30 -59 -51 -53 -46 -161 -179 -161 -199 0 -8 -4 -14 -8 -14 -12 0 -40 -67 -33 -79 7 -11 58 11 87 38 11 9 27 20 36 24 10 3 18 11 18 16 0 5 11 12 24 15 14 3 31 12 38 19 19 18 187 97 207 97 6 0 11 4 11 8 0 5 25 14 55 21 30 7 57 16 60 21 2 4 34 13 70 20 36 7 68 16 71 21 3 5 25 9 48 9 39 0 45 -3 59 -32 15 -32 21 -60 18 -85 0 -6 -28 -14 -61 -18 -33 -4 -60 -10 -60 -15 0 -4 -21 -10 -46 -14 -25 -3 -62 -13 -82 -22 -102 -46 -208 -98 -212 -104 -3 -4 -15 -10 -26 -14 -12 -4 -32 -15 -45 -26 -31 -26 -36 -29 -94 -70 -75 -52 -108 -88 -199 -219 -34 -47 -59 -121 -42 -121 6 0 158 99 181 118 14 11 181 92 192 92 4 1 26 9 48 20 22 11 48 19 58 20 9 0 17 4 17 8 0 5 30 14 68 22 37 7 69 16 72 20 5 7 147 36 252 51 94 13 107 6 157 -93 23 -45 46 -90 51 -98 5 -8 41 -71 80 -140 87 -153 94 -164 100 -170 3 -3 18 -26 33 -52 15 -27 32 -48 37 -48 6 0 10 -5 10 -11 0 -6 10 -24 23 -39 12 -15 29 -37 37 -50 8 -12 23 -32 32 -44 10 -11 26 -31 35 -43 66 -81 101 -120 208 -227 119 -119 203 -196 217 -196 4 0 21 -13 39 -30 18 -16 90 -57 159 -91 69 -34 133 -66 143 -71 29 -14 107 -26 112 -17 6 9 -25 49 -38 49 -4 0 -13 5 -20 10 -7 6 -39 30 -72 55 -129 97 -339 302 -421 411 -16 21 -40 52 -54 67 -39 45 -169 229 -176 249 -3 10 -9 18 -14 18 -4 0 -10 8 -13 18 -4 9 -18 35 -32 57 -14 22 -32 54 -40 70 -9 17 -33 62 -55 100 -22 39 -61 113 -86 165 -26 52 -50 97 -54 100 -12 8 -32 81 -25 88 4 4 41 8 83 10 l77 4 29 -66 c16 -36 33 -66 37 -66 4 0 10 -11 13 -25 7 -29 126 -238 138 -243 4 -2 8 -8 8 -12 0 -5 11 -26 25 -47 14 -21 31 -46 38 -57 6 -10 17 -24 23 -30 6 -6 17 -22 24 -36 13 -25 24 -39 53 -71 9 -10 17 -23 17 -29 0 -5 6 -13 13 -17 6 -4 24 -24 39 -44 69 -92 333 -359 356 -359 5 0 19 -11 32 -25 13 -14 29 -25 37 -25 7 0 13 -4 13 -9 0 -9 18 -21 80 -53 14 -7 27 -16 30 -19 3 -4 32 -19 65 -33 33 -15 68 -31 77 -36 10 -6 27 -10 38 -10 31 0 24 32 -15 70 -40 39 -203 205 -250 254 -17 18 -59 68 -95 111 -36 44 -70 85 -76 90 -7 6 -36 44 -65 85 -29 41 -63 89 -76 105 -13 17 -27 35 -31 40 -4 6 -21 33 -36 60 -16 28 -32 52 -36 55 -4 3 -20 29 -36 57 -16 29 -32 53 -36 53 -5 0 -8 5 -8 12 0 11 -87 168 -99 178 -12 10 -65 130 -59 135 6 6 153 -6 166 -14 5 -3 35 -51 67 -106 32 -55 61 -102 64 -105 3 -3 13 -18 21 -35 8 -16 20 -35 25 -42 6 -7 15 -18 21 -25 5 -7 13 -21 17 -30 10 -26 160 -228 169 -228 4 0 8 -6 8 -13 0 -7 12 -26 28 -43 15 -17 43 -51 62 -75 38 -48 193 -206 250 -254 106 -90 233 -178 326 -225 27 -14 51 -28 54 -31 8 -10 82 -29 113 -29 32 0 35 10 6 30 -12 8 -34 25 -49 37 -15 13 -30 23 -32 23 -11 0 -91 75 -232 216 -155 154 -189 191 -241 260 -42 55 -48 63 -66 83 -9 10 -18 22 -20 27 -13 29 -52 84 -60 84 -5 0 -9 5 -9 12 0 6 -11 26 -25 44 -14 18 -25 37 -25 43 0 6 -3 11 -7 11 -5 0 -21 25 -38 55 -16 30 -32 55 -36 55 -4 0 -10 11 -13 24 -3 14 -12 31 -19 38 -22 25 -87 144 -87 161 0 10 145 9 154 -1 4 -4 56 -15 114 -24 190 -30 287 -49 304 -58 9 -5 36 -13 60 -16 24 -4 48 -10 53 -14 6 -4 35 -13 65 -19 30 -7 64 -16 75 -21 24 -10 107 -37 155 -51 19 -5 44 -14 55 -19 11 -6 52 -21 90 -35 39 -14 86 -33 105 -41 19 -9 55 -25 80 -36 25 -11 57 -26 72 -34 14 -8 33 -14 42 -14 9 0 16 -4 16 -8 0 -5 18 -15 40 -22 22 -7 40 -17 40 -22 0 -4 6 -8 12 -8 12 0 118 -50 128 -60 3 -3 19 -12 35 -20 17 -8 32 -17 35 -20 3 -3 16 -11 30 -18 14 -7 43 -23 65 -37 22 -13 48 -27 58 -31 9 -3 17 -10 17 -14 0 -4 14 -13 30 -20 17 -7 30 -15 30 -19 0 -4 12 -14 28 -23 67 -41 261 -220 344 -319 72 -84 78 -92 78 -100 0 -12 58 -69 70 -69 15 0 12 67 -4 103 -8 18 -20 50 -27 72 -6 22 -15 42 -18 45 -3 3 -19 32 -35 65 -16 33 -51 91 -79 130 -64 89 -65 89 -109 137 -21 22 -38 41 -38 43 0 4 -81 85 -85 85 -2 0 -21 17 -43 38 -54 52 -102 91 -126 104 -12 6 -25 17 -29 24 -4 8 -14 14 -22 14 -7 0 -15 4 -17 8 -4 12 -143 102 -157 102 -6 0 -11 4 -11 8 0 5 -39 29 -87 53 -49 24 -89 47 -91 52 -2 4 -8 7 -13 7 -5 0 -47 18 -93 40 -46 22 -86 40 -90 40 -4 0 -27 9 -52 20 -24 11 -58 23 -74 27 -17 3 -30 9 -30 14 0 5 -7 9 -16 9 -9 0 -30 6 -47 14 -47 20 -192 66 -211 66 -9 0 -16 4 -16 9 0 4 -28 14 -62 21 -35 6 -72 16 -83 21 -36 16 -221 58 -257 59 -16 0 -28 4 -28 9 0 4 -35 13 -77 20 -43 6 -104 15 -136 21 -32 6 -102 15 -155 21 -253 26 -226 17 -255 89 -33 78 -36 73 50 67 106 -8 370 -43 468 -61 192 -35 281 -53 295 -59 8 -3 47 -11 85 -18 39 -6 75 -15 80 -19 6 -4 30 -11 55 -15 24 -4 51 -11 60 -16 8 -5 40 -15 70 -23 108 -29 145 -41 150 -47 3 -3 28 -12 55 -19 28 -8 61 -20 75 -27 14 -7 32 -13 41 -13 8 0 19 -4 25 -9 5 -5 27 -14 49 -21 22 -7 49 -19 60 -26 11 -8 27 -14 37 -14 10 0 18 -4 18 -9 0 -5 12 -12 28 -16 33 -8 272 -125 290 -142 7 -7 20 -13 28 -13 8 0 14 -4 14 -9 0 -5 15 -14 33 -22 17 -7 34 -15 37 -19 3 -3 50 -36 105 -73 105 -70 120 -82 225 -175 107 -95 270 -271 270 -292 0 -14 61 -61 71 -54 12 7 12 64 0 64 -5 0 -11 13 -14 30 -4 16 -16 50 -27 74 -11 25 -20 49 -20 55 0 5 -3 11 -7 13 -5 2 -24 33 -43 70 -19 38 -38 68 -42 68 -5 0 -8 7 -8 15 0 7 -6 18 -13 22 -8 4 -18 15 -23 24 -35 64 -230 260 -340 344 -21 16 -43 33 -49 37 -40 32 -105 78 -130 92 -44 24 -69 40 -75 47 -3 4 -21 15 -42 25 -215 111 -285 144 -300 144 -10 0 -18 4 -18 9 0 5 -12 12 -27 16 -16 3 -46 15 -68 25 -82 37 -113 50 -127 50 -7 1 -31 9 -53 20 -22 11 -47 19 -55 20 -9 0 -20 4 -25 9 -6 4 -32 14 -60 20 -27 7 -59 17 -70 21 -33 14 -157 49 -200 56 -22 4 -44 10 -50 14 -5 4 -30 11 -55 15 -25 3 -58 11 -75 16 -43 13 -226 43 -485 79 -36 5 -137 12 -225 16 -88 4 -167 10 -176 15 -9 4 -24 34 -34 66 -10 32 -20 64 -23 71 -4 11 16 13 104 9 125 -6 439 -40 564 -61 134 -23 284 -52 300 -58 8 -4 38 -11 65 -17 95 -20 200 -46 210 -52 6 -4 37 -12 70 -19 33 -7 64 -17 70 -22 5 -4 16 -8 25 -8 8 0 26 -6 40 -13 14 -7 48 -19 75 -27 28 -7 55 -16 60 -20 6 -3 44 -19 85 -35 79 -30 153 -62 285 -125 44 -21 87 -41 95 -44 8 -4 42 -22 75 -42 33 -19 76 -42 95 -52 19 -9 37 -19 40 -22 3 -3 50 -35 105 -72 138 -93 153 -105 297 -251 137 -139 139 -141 183 -207 17 -25 35 -50 40 -56 6 -6 26 -36 45 -67 50 -80 65 -83 56 -10 -4 31 -13 71 -21 87 -8 16 -15 34 -15 40 0 6 -11 34 -25 61 -13 28 -25 56 -25 63 0 6 -4 12 -8 12 -4 0 -14 16 -21 35 -7 19 -17 35 -22 35 -5 0 -9 5 -9 12 0 12 -94 141 -144 197 -31 34 -151 155 -199 199 -14 12 -29 22 -33 22 -5 0 -21 13 -36 29 -16 15 -40 34 -55 42 -16 8 -32 20 -36 26 -4 7 -15 13 -22 13 -8 0 -15 4 -15 8 0 5 -15 16 -32 25 -18 10 -60 33 -93 53 -33 19 -72 40 -87 47 -16 6 -28 15 -28 18 0 4 -17 13 -37 20 -21 6 -40 15 -43 18 -8 9 -117 61 -129 61 -6 0 -11 4 -11 9 0 5 -22 15 -50 22 -27 7 -50 16 -50 21 0 4 -6 8 -12 8 -7 1 -31 9 -53 20 -22 11 -47 20 -55 20 -8 0 -33 9 -55 20 -22 11 -47 19 -55 20 -9 0 -20 4 -25 9 -6 4 -32 14 -60 20 -27 7 -59 17 -70 21 -24 10 -141 45 -205 61 -25 6 -67 16 -95 23 -27 7 -57 15 -65 19 -15 6 -134 29 -255 48 -33 6 -73 14 -90 19 -16 5 -88 14 -160 20 -71 6 -152 15 -180 21 -27 5 -123 13 -212 17 -89 4 -165 11 -169 14 -6 7 -20 62 -50 203 -27 125 -55 307 -69 445 -8 74 -19 167 -24 205 -16 107 -23 531 -12 705 11 190 39 448 51 475 5 11 14 54 21 95 6 41 15 80 19 85 4 6 11 30 15 55 4 25 11 50 15 55 4 6 14 36 21 68 7 32 16 60 21 63 11 7 10 51 -1 59 -6 3 -21 -7 -35 -22z m-184 -2779 c34 -6 39 -11 50 -48 6 -22 15 -45 20 -50 15 -18 8 -26 -23 -26 -17 0 -39 -5 -50 -10 -29 -16 -75 20 -83 65 -4 19 -11 35 -16 35 -6 0 -10 9 -10 20 0 16 7 20 38 20 20 0 54 -3 74 -6z m-343 -68 c24 -96 8 -120 -76 -114 l-47 3 -13 64 c-12 58 -11 65 5 77 9 7 40 14 68 14 l52 0 11 -44z m543 -388 c7 -13 18 -40 24 -60 l12 -38 -72 0 -72 0 -22 50 c-12 28 -22 52 -22 54 0 5 49 12 102 14 29 2 40 -3 50 -20z m-411 -28 c12 -23 39 -83 39 -87 0 -1 -35 -3 -78 -3 l-78 0 -17 38 c-30 69 -27 73 54 70 52 -2 74 -7 80 -18z"/>
 </g>

</svg>